<svg t="1603017085510" class="icon" viewBox="0 0 1024 1024" version="1.1" xmlns="http://www.w3.org/2000/svg" p-id="2971" width="200" height="200"><path d="M736 544 512 544C494.304 544 480 529.696 480 512L480 256C480 238.304 494.304 224 512 224 529.696 224 544 238.304 544 256L544 480 736 480C753.696 480 768 494.336 768 512 768 529.696 753.696 544 736 544L736 544ZM960 512C960 264.608 759.424 64 512 64 264.576 64 64 264.608 64 512 64 681.696 158.368 829.28 297.472 905.312L192 1024 288 1024 373.92 938.08C417.44 952.192 463.776 960 512 960 560.224 960 606.56 952.192 650.08 938.08L736 1024 832 1024 726.56 905.312C865.632 829.28 960 681.696 960 512L960 512ZM864 0 800 0 800 64 864 64C917.024 64 960 106.976 960 160L960 224 1024 224 1024 160C1024 71.616 952.384 0 864 0L864 0ZM64 160C64 106.976 106.976 64 160 64L224 64 224 0 160 0C71.616 0 0 71.616 0 160L0 224 64 224 64 160 64 160Z" p-id="2972"></path></svg>