<svg t="1603017335976" class="icon" viewBox="0 0 1024 1024" version="1.1" xmlns="http://www.w3.org/2000/svg" p-id="5182" width="200" height="200"><path d="M725.333333 938.666667H170.666667c-46.933333 0-85.333333-38.4-85.333334-85.333334V298.666667c0-25.6 17.066667-42.666667 42.666667-42.666667s42.666667 17.066667 42.666667 42.666667v512c0 21.333333 17.066667 42.666667 42.666666 42.666666h512c21.333333 0 42.666667 17.066667 42.666667 38.4v4.266667c0 21.333333-17.066667 42.666667-42.666667 42.666667z m-366.933333-170.666667C302.933333 768 256 721.066667 256 665.6V187.733333C256 132.266667 302.933333 85.333333 358.4 85.333333h477.866667C891.733333 85.333333 938.666667 132.266667 938.666667 187.733333v477.866667c0 55.466667-46.933333 102.4-102.4 102.4H358.4z m81.066667-85.333333H810.666667c21.333333-4.266667 38.4-21.333333 42.666666-42.666667v-128l-119.466666-106.666667-294.4 277.333334zM384 298.666667c0 46.933333 38.4 85.333333 85.333333 85.333333s85.333333-38.4 85.333334-85.333333-38.4-85.333333-85.333334-85.333334-85.333333 38.4-85.333333 85.333334z" p-id="5183"></path></svg>