<svg width="128" height="128" xmlns="http://www.w3.org/2000/svg"><path d="M 127.9 73.1 c 0 1.4 -0.5 2.6 -1.5 3.7 c -1 1 -2.2 1.6 -3.6 1.6 h -17.9 c 0 9.3 -1.8 17.2 -5.3 23.6 l 16.6 17 c 1 1 1.5 2.3 1.5 3.7 c 0 1.4 -0.5 2.6 -1.5 3.7 c -1 1 -2.2 1.6 -3.6 1.6 c -1.4 0 -2.6 -0.5 -3.6 -1.6 l -15.8 -16.1 a 15.5 15.5 0 0 1 -1.2 1.1 c -0.5 0.4 -1.6 1.2 -3.4 2.3 a 50.1 50.1 0 0 1 -5.2 3 c -1.8 0.9 -3.9 1.7 -6.5 2.4 c -2.6 0.7 -5.2 1.1 -7.7 1.1 V 47 H 58.9 v 73.1 c -2.7 0 -5.4 -0.4 -8.1 -1.1 c -2.7 -0.7 -5 -1.6 -6.9 -2.7 a 66.8 66.8 0 0 1 -5.3 -3.2 c -1.6 -1.1 -2.7 -1.9 -3.5 -2.6 L 33.9 109.3 l -14.6 16.9 c -1.1 1.1 -2.3 1.7 -3.8 1.7 c -1.3 0 -2.4 -0.4 -3.4 -1.3 c -1 -1 -1.6 -2.2 -1.6 -3.6 c -0.1 -1.4 0.3 -2.7 1.2 -3.8 l 16.1 -18.5 c -3.1 -6.2 -4.6 -13.6 -4.6 -22.3 H 5.2 c -1.4 0 -2.6 -0.5 -3.6 -1.6 S 0.1 74.5 0.1 73.1 c 0 -1.4 0.5 -2.6 1.5 -3.7 c 1 -1 2.2 -1.6 3.6 -1.6 h 17.9 V 43.9 L 9.3 29.8 c -1 -1 -1.5 -2.3 -1.5 -3.7 c 0 -1.4 0.5 -2.6 1.5 -3.7 c 1 -1 2.2 -1.6 3.6 -1.6 s 2.6 0.5 3.6 1.6 l 13.8 14.1 h 67.4 l 13.8 -14.1 c 1 -1 2.2 -1.6 3.6 -1.6 c 1.4 0 2.6 0.5 3.6 1.6 c 1 1 1.5 2.3 1.5 3.7 c 0 1.4 -0.5 2.6 -1.5 3.7 l -13.8 14.1 v 24 h 17.9 c 1.4 0 2.6 0.5 3.6 1.6 c 1 1 1.5 2.3 1.5 3.7 l 0 0 z M 89.6 26.2 H 38.4 c 0 -7.2 2.5 -13.4 7.5 -18.5 C 50.9 2.6 56.9 0.1 64 0.1 c 7.1 0 13.1 2.5 18.1 7.6 c 5 5.1 7.5 11.2 7.5 18.5 z"/></svg>