<?xml version="1.0" standalone="no"?><!DOCTYPE svg PUBLIC "-//W3C//DTD SVG 1.1//EN" "http://www.w3.org/Graphics/SVG/1.1/DTD/svg11.dtd"><svg t="1601181383106" class="icon" viewBox="0 0 1358 1024" version="1.1" xmlns="http://www.w3.org/2000/svg" p-id="2328" xmlns:xlink="http://www.w3.org/1999/xlink" width="265.234375" height="200"><defs><style type="text/css"></style></defs><path d="M1010.407891 136.426009v751.154774a31.133016 31.133016 0 0 1-31.133016 31.133017H135.853162a31.133016 31.133016 0 0 1-31.133016-31.133017V136.426009a31.133016 31.133016 0 0 1 31.133016-31.133016h842.855658a31.133016 31.133016 0 0 1 31.699071 31.133016z m243.403582 251.894405V622.667118l-136.985272-85.474281V461.341488z m86.60639-127.36234a52.6431 52.6431 0 0 0-33.96329-13.019261 51.510991 51.510991 0 0 0-24.906413 6.226603l-166.986178 88.87061V94.537951A94.531158 94.531158 0 0 0 1018.898714 0.006793H93.965104A94.531158 94.531158 0 0 0 0 94.537951v834.930891a94.531158 94.531158 0 0 0 93.965104 94.531158H1018.898714a94.531158 94.531158 0 0 0 93.965103-94.531158v-268.309995l163.023795 104.154091a52.077045 52.077045 0 0 0 28.302742 8.490822 52.6431 52.6431 0 0 0 52.6431-53.209155v-418.880582a56.605484 56.605484 0 0 0-16.415591-40.755949z" fill="#5E5C5C" p-id="2329"></path></svg>