<svg width="128" height="128" xmlns="http://www.w3.org/2000/svg"><path d="M 18.4 57.5 l -0.2 -0.7 l -0.2 -1 l -0.1 -0.5 v -2.2 l 0.2 -0.9 l 0.2 -0.9 l 0.3 -1 l 0.4 -1.1 l 0.6 -1.1 l 0.8 -1.1 v -0.8 l 0.1 -0.7 l 0.1 -1 l 0.3 -1.1 l 0.3 -1.2 l 0.3 -0.5 l 0.3 -0.5 l 0.4 -0.6 l 0.4 -0.4 v -2.7 l 0.2 -1.4 l 0.2 -1.6 l 0.4 -2 l 0.6 -2 l 0.4 -1.1 l 0.4 -1.2 l 0.5 -1.1 l 0.6 -1.2 l 0.6 -1.3 l 0.7 -1.2 l 0.7 -1.3 l 0.9 -1.3 l 0.4 -0.8 l 0.5 -0.6 l 1 -1.4 l 1 -1.4 l 1.2 -1.4 l 1.2 -1.4 l 1.4 -1.4 l 1.4 -1.4 l 1.7 -1.5 l 1.1 -0.9 l 1.3 -1 l 1.3 -0.9 l 1.4 -0.9 l 1.4 -0.8 l 1.6 -0.6 l 1.7 -0.8 l 1.7 -0.5 l 1.7 -0.6 l 1.8 -0.5 l 1.8 -0.4 l 1.9 -0.3 L 59.1 0.7 l 1.9 -0.2 l 1.9 -0.3 l 2 -0.1 h 5.9 l 2 0.2 l 2 0.2 l 2 0.2 l 1.9 0.4 l 2 0.4 l 1.9 0.5 l 2 0.5 l 1.9 0.6 l 1.8 0.7 l 1.9 0.8 l 1.7 0.9 l 1.7 0.9 l 1.7 1 l 1.4 1 l 0.7 0.5 l 0.7 0.4 l 1.3 1.1 l 1.1 1.1 l 1.1 1.1 l 1.1 1.2 l 0.9 1.2 l 1.1 1.2 l 0.7 1.3 l 0.8 1.2 l 0.8 1.4 l 0.7 1.2 l 1.1 2.5 l 0.5 1.3 l 0.4 1.2 l 0.4 1.3 l 0.4 1.2 l 0.3 1 l 0.3 1.2 l 0.6 2.2 l 0.4 1.9 l 0.3 1.9 l 0.2 1.5 l 0.3 2.3 l 0.1 0.4 l 0.3 0.4 l 0.7 1.2 l 0.5 0.8 l 0.4 0.8 l 0.5 0.9 l 0.5 1.1 l 0.3 1.1 l 0.3 1.2 l 0.3 1.2 l 0.1 0.6 l 0.1 0.7 v 0.6 l -0.1 0.6 v 0.8 l -0.2 0.8 l -0.3 1.5 l -0.4 0.8 l -0.3 0.9 v 0.2 l 0.1 0.3 l 0.4 0.6 l 1.7 2.5 l 1.4 1.9 l 0.7 1.3 l 0.9 1.4 l 0.8 1.5 l 0.9 1.6 l 0.9 1.8 l 1 2.1 l 0.6 1.3 l 0.5 1.2 l 0.4 1.3 l 0.4 1.2 l 0.3 1.2 l 0.3 1.2 l 0.4 2.3 l 0.3 2.3 l 0.2 2 v 2.9 l -0.2 1 l -0.2 1.8 l -0.3 1.6 l -0.5 1.4 l -0.2 0.6 l -0.3 0.7 l -0.3 0.5 l -0.4 0.6 l -0.3 0.4 l -0.4 0.5 l -0.4 0.4 l -0.4 0.3 l -0.5 0.2 l -0.4 0.2 l -0.4 0.1 h -0.5 l -0.3 -0.1 l -0.7 -0.3 l -0.3 -0.2 l -0.3 -0.2 l -0.3 -0.3 l -0.3 -0.3 l -0.6 -0.6 l -0.7 -0.9 l -0.5 -0.9 l -0.5 -0.7 l -0.5 -0.9 l -0.7 -1.5 l -0.8 -1.6 l -0.1 -0.1 h -0.1 l -0.3 0.2 l -0.2 0.4 l -0.3 0.5 l -0.6 1.5 l -0.9 2.2 l -1.1 2.6 l -0.8 1.3 l -0.9 1.4 l -1 1.5 l -1.1 1.5 l -0.6 0.7 l -0.7 0.7 l -1.6 1.5 l 0.1 0.1 l 0.2 0.2 l 0.8 0.4 l 3.2 1.5 l 1.4 0.8 l 1.3 0.8 l 1.3 1 l 1.2 1 l 0.6 0.4 l 0.4 0.5 l 0.4 0.6 l 0.4 0.6 l 0.2 0.5 l 0.2 0.6 l 0.1 0.6 l 0.1 0.6 l -0.1 0.4 v 0.4 l -0.1 0.5 l -0.2 0.4 l -0.1 0.3 l -0.2 0.4 l -0.6 0.8 l -0.5 0.6 l -0.4 0.5 l -0.3 0.3 l -0.9 0.6 l -1 0.6 l -1.1 0.5 l -1.2 0.5 l -1.3 0.5 l -0.7 0.2 l -0.6 0.2 l -1.5 0.3 l -1.5 0.3 l -1.6 0.3 l -1.7 0.3 l -1.7 0.1 l -1.8 0.2 h -5.5 l -2 -0.1 l -1.9 -0.2 l -2 -0.3 l -2 -0.2 l -2.1 -0.3 l -2 -0.5 l -2 -0.4 l -2 -0.6 l -2 -0.7 l -2 -0.6 l -1 -0.3 l -0.9 -0.3 l -0.6 -0.2 l -0.6 -0.1 h -1.6 l -1.9 -0.1 l -1 -0.1 l -1.2 -0.1 l -0.8 0.7 l -1.1 0.7 l -1.5 0.7 l -1.6 0.9 l -1 0.5 l -1 0.4 l -2.3 0.9 l -1.2 0.3 l -1.3 0.3 l -1.8 0.3 l -1.1 0.1 l -1.2 0.1 l -1.2 0.1 l -1.4 0.1 h -5.9 l -3.3 -0.1 l -3.3 -0.3 l -1.6 -0.2 l -1.6 -0.2 l -1.5 -0.2 l -1.5 -0.3 l -1.4 -0.5 l -1.4 -0.3 l -1.3 -0.5 l -1.2 -0.5 l -1.1 -0.5 l -1 -0.6 l -1 -0.7 l -0.3 -0.3 l -0.4 -0.4 l -0.3 -0.4 l -0.3 -0.4 l -0.3 -0.4 l -0.2 -0.4 l -0.3 -0.9 l -0.1 -0.5 l -0.1 -0.5 v -0.5 l 0.1 -0.5 v -0.5 l 0.1 -0.5 v -1.1 l 0.1 -0.6 l 0.3 -0.6 l 0.2 -0.6 l 0.4 -0.8 l 0.3 -0.3 l 0.2 -0.3 l 0.6 -0.7 l 0.5 -0.4 l 0.5 -0.3 l 0.4 -0.3 l 0.7 -0.2 l 0.5 -0.3 l 0.7 -0.3 l 0.8 -0.2 l 0.8 -0.2 l 0.9 -0.2 l 0.8 -0.1 l 1 -0.1 l 1.1 -0.1 l 0.3 -0.1 h 0.1 l 0.1 -0.1 v -0.1 l -0.2 -0.3 l -0.6 -0.3 l -1.4 -1.2 l -1 -0.8 l -1.1 -1 l -1.1 -1.1 l -1.2 -1.4 l -1.4 -1.6 l -0.5 -0.8 l -0.7 -0.9 l -0.6 -1 l -0.5 -1.1 l -0.7 -1 l -0.5 -1.2 l -0.5 -1.2 l -0.5 -1.3 l -0.4 -1.3 l -0.4 -1.6 l -0.1 -0.1 h -0.1 l -0.1 -0.1 h -0.1 l -0.2 0.1 l -0.1 0.1 l -0.2 0.3 l -0.1 0.3 l -0.1 0.3 l -0.2 0.5 l -0.7 1.2 l -0.3 0.7 l -0.5 0.6 l -0.6 0.7 l -0.6 0.8 l -0.7 0.7 l -0.8 0.7 l -0.7 0.7 l -0.8 0.5 l -0.9 0.5 l -0.9 0.3 l -1 0.2 l -1 0.1 h -0.2 l -0.2 -0.1 l -0.2 -0.4 l -0.3 -0.2 l -0.4 -0.9 l -0.2 -0.5 l -0.3 -0.7 l -0.2 -0.7 l -0.1 -0.7 l -0.3 -1.6 l -0.1 -1 v -3.2 l 0.1 -2.4 l 0.2 -1.2 l 0.2 -1.3 l 0.2 -1.3 l 0.4 -1.3 l 0.4 -1.4 l 0.4 -1.4 l 0.6 -1.4 l 0.5 -1.4 l 0.8 -1.4 l 0.7 -1.5 l 0.9 -1.4 l 1 -1.5 l 1 -1.4 l 1.1 -1.5 l 0.9 -1.1 l 1.1 -1.2 l 1.2 -1.2 l 0.6 -0.6 l 0.7 -0.7 l 1 -0.8 l 1 -0.9 l 1.6 -1.4 l 1.2 -0.9 z"/></svg>