<?xml version="1.0" standalone="no"?><!DOCTYPE svg PUBLIC "-//W3C//DTD SVG 1.1//EN" "http://www.w3.org/Graphics/SVG/1.1/DTD/svg11.dtd"><svg t="1601181535905" class="icon" viewBox="0 0 1024 1024" version="1.1" xmlns="http://www.w3.org/2000/svg" p-id="4953" xmlns:xlink="http://www.w3.org/1999/xlink" width="200" height="200"><defs><style type="text/css"></style></defs><path d="M377.606363 691.815727l54.797405-54.797406c5.199754 1.399934 9.999527 3.199849 15.599262 3.199849 35.398324 0 63.99697-28.598646 63.99697-63.99697s-28.598646-63.99697-63.99697-63.996971-63.99697 28.598646-63.99697 63.996971c0 5.599735 1.799915 10.399508 3.199848 15.599261l-54.797405 54.797406L98.819562 413.028926c-14.599309-14.599309-40.198097-12.199422-49.997633 5.999716-83.596042 155.592634-59.797169 353.38327 71.396619 484.577058 131.193789 131.193789 329.184415 154.992662 484.577059 71.39662 18.399129-9.799536 20.799015-35.398324 5.999716-49.997633L377.606363 691.815727zM418.00445 0.048478c-18.399129-0.999953-33.99839 13.599356-33.99839 31.998485v63.197008c0 16.999195 13.199375 30.998532 29.998579 31.798494 258.787748 13.999337 466.777901 223.989396 481.777191 482.977134 0.999953 16.799205 14.99929 29.99858 31.798495 29.99858h64.196961c18.399129 0 32.998438-15.599261 31.998485-33.99839C1006.776575 279.635241 744.388998 17.247663 418.00445 0.048478z m0.599972 191.99091c-18.599119-1.399934-34.598362 13.399366-34.598362 32.198476v64.19696c0 16.799205 12.999385 30.598551 29.598598 31.798495 153.592728 12.599403 275.986934 136.393543 289.786281 290.386252 1.599924 16.599214 15.19928 29.398608 31.798494 29.398608h64.396952c18.599119 0 33.598409-15.999243 32.198475-34.598362-16.799205-220.189575-192.990863-396.381234-413.180438-413.380429z" p-id="4954"></path></svg>